<svg xmlns="http://www.w3.org/2000/svg" viewBox="0 0 272.84 132.23"><defs><style>.cls-1,.cls-2,.cls-6,.cls-7{fill:none;}.cls-1,.cls-2,.cls-3,.cls-6,.cls-7{stroke:#c42c2c;stroke-miterlimit:10;}.cls-1,.cls-2,.cls-6{stroke-width:1.17px;}.cls-1{stroke-dasharray:2.35;}.cls-3{fill:#c42c2c;stroke-width:0.78px;}.cls-4{font-size:9.32px;}.cls-4,.cls-5{font-family:PingFang-SC-Regular, PingFang SC;}.cls-5{font-size:10.03px;}.cls-6,.cls-7{stroke-dasharray:4.14;}.cls-7{stroke-width:1.17px;}</style></defs><title>chart-instruction</title><g id="图层_2" data-name="图层 2"><g id="图层_1-2" data-name="图层 1"><line class="cls-1" x1="11.13" y1="72.05" x2="62.74" y2="72.05"/><circle class="cls-2" cx="65.07" cy="55.86" r="38.27"/><path class="cls-3" d="M64.82,94v-.29a11.24,11.24,0,0,0,2.3-.3l.06.29A11.63,11.63,0,0,1,64.82,94Zm-2.36-.2a11.88,11.88,0,0,1-2.11-.62l-.16-.07.11-.27.17.07a10.88,10.88,0,0,0,2,.6ZM69.41,93l-.12-.26a11.65,11.65,0,0,0,2-1.2l.18.23A10.77,10.77,0,0,1,69.41,93Zm-11.3-1a10.6,10.6,0,0,1-1.79-1.56l.21-.19a11.43,11.43,0,0,0,1.75,1.51Zm15-1.91-.22-.19A11.34,11.34,0,0,0,74.25,88l.25.14A10.46,10.46,0,0,1,73.16,90.09ZM54.89,88.55a11.31,11.31,0,0,1-1-2.15l.27-.1a10.85,10.85,0,0,0,1,2.1Zm20.52-2.61-.28-.08a11.07,11.07,0,0,0,.42-2.27l.29,0A11.53,11.53,0,0,1,75.41,85.94Zm-22-1.86a11.87,11.87,0,0,1-.08-1.33c0-.35,0-.7.05-1l.29,0c0,.33-.05.67-.05,1a11.34,11.34,0,0,0,.08,1.3Zm22.11-2.8A11,11,0,0,0,74.93,79l.27-.1a11.64,11.64,0,0,1,.57,2.31Zm-21.4-1.81-.27-.08q.13-.44.3-.87a12.21,12.21,0,0,1,.64-1.31l.25.14a10,10,0,0,0-.61,1.28C54.27,78.91,54.17,79.19,54.08,79.47ZM73.92,77a10.42,10.42,0,0,0-1.41-1.82l.21-.21a11.61,11.61,0,0,1,1.45,1.88ZM56.34,75.47l-.22-.2a11.09,11.09,0,0,1,1.75-1.6l.17.24A10.93,10.93,0,0,0,56.34,75.47Zm14.4-1.83a11.05,11.05,0,0,0-2-1.08l.11-.28A11.66,11.66,0,0,1,70.9,73.4ZM60,72.74l-.12-.27a11.22,11.22,0,0,1,2.25-.75l.06.29A10.63,10.63,0,0,0,60,72.74ZM66.82,72a11.2,11.2,0,0,0-2.24-.23h-.06v-.29h.06a11.09,11.09,0,0,1,2.3.24Z"/><line class="cls-1" x1="11.13" y1="18.09" x2="62.74" y2="18.09"/><text class="cls-4" transform="translate(0 21.01)">60</text><text class="cls-4" transform="translate(0 74.96)">5</text><text class="cls-5" transform="translate(127.47 36.54)">乐器材质</text><text class="cls-5" transform="translate(127.47 8.62)">乐器形制</text><text class="cls-5" transform="translate(127.47 86.17)">乐器纹饰</text><text class="cls-5" transform="translate(127.47 58.36)">乐器数量（个）</text><line class="cls-6" x1="196.72" y1="5.29" x2="196.72" y2="131.89"/><line class="cls-7" x1="272.18" y1="27.03" x2="196.72" y2="131.89"/><path class="cls-7" d="M196.41,84.2a47.77,47.77,0,0,1,28.37,9.12"/><path class="cls-7" d="M197,53.5a68.65,68.65,0,0,1,44.94,15"/><path class="cls-7" d="M196.63,31.39l.33-.06a68.55,68.55,0,0,1,59.49,17.89"/><path class="cls-7" d="M272.38,26.64A68.48,68.48,0,0,0,196.32,6"/><line class="cls-2" x1="121.91" y1="56.41" x2="103.3" y2="56.41"/><path d="M130.72,13.37c-.15-.52-.37-1.08-1.12-1.08a.76.76,0,0,0-.79.81c0,.48.32.75,1,1.1.89.45,1.39.85,1.39,1.63a1.68,1.68,0,0,1-1.87,1.58,4,4,0,0,1-1.3-.26,13.39,13.39,0,0,1-.23-1.32l.29-.07c.16.51.57,1.32,1.37,1.32a.78.78,0,0,0,.83-.85c0-.51-.3-.78-1-1.15S128,14.24,128,13.44,128.6,12,129.75,12a6.36,6.36,0,0,1,1.11.14c0,.3.08.68.14,1.19Z"/><path d="M134,17.29V17c.39-.05.43-.1.43-.57V15.09c0-.63-.26-.89-.65-.88a1,1,0,0,0-.68.29v2c0,.46,0,.52.46.57v.26h-1.85V17c.42,0,.5-.07.5-.59V12.69c0-.39,0-.48-.51-.55V11.9a6.69,6.69,0,0,0,1.4-.27V14.2a1.74,1.74,0,0,1,1.11-.55c.68,0,1.11.44,1.11,1.35v1.44c0,.52.06.54.47.59v.26Z"/><path d="M138.79,17.38a.7.7,0,0,1-.45-.16.74.74,0,0,1-.2-.32,2.63,2.63,0,0,1-.89.48,1,1,0,0,1-1.05-1c0-.41.2-.63.63-.79a5.94,5.94,0,0,0,1.28-.53v-.28c0-.47-.2-.74-.57-.74a.45.45,0,0,0-.34.17,1.84,1.84,0,0,0-.2.53.28.28,0,0,1-.3.24.45.45,0,0,1-.43-.39c0-.14.1-.24.27-.36a3.83,3.83,0,0,1,1.24-.57,1.34,1.34,0,0,1,.77.23,1.09,1.09,0,0,1,.43,1v1.44c0,.38.13.48.26.48a.59.59,0,0,0,.26-.07l.09.26Zm-.68-2c-.15.09-.38.2-.55.28s-.42.28-.42.56a.55.55,0,0,0,.51.61.67.67,0,0,0,.46-.18Z"/><path d="M139.81,13.93a8.89,8.89,0,0,0,1.36-.36v.6l.61-.35a1.13,1.13,0,0,1,.5-.17,1.46,1.46,0,0,1,1.39,1.56,2.27,2.27,0,0,1-2,2.17,1.45,1.45,0,0,1-.53-.09v1c0,.49.05.54.63.61v.25h-2.06V18.9c.5,0,.54-.11.54-.59V14.72c0-.45,0-.49-.47-.54Zm1.36,2.76a1.12,1.12,0,0,0,.69.31c.52,0,.88-.55.88-1.42s-.49-1.36-1-1.36a1.13,1.13,0,0,0-.62.24Z"/><path d="M147.35,16.54a1.83,1.83,0,0,1-1.42.84,1.61,1.61,0,0,1-1.64-1.73,2.11,2.11,0,0,1,.57-1.43,1.76,1.76,0,0,1,1.23-.57,1.3,1.3,0,0,1,1.29,1.28c0,.15,0,.26-.13.29s-1.24.1-2.08.13c0,.93.55,1.36,1.12,1.36a1.36,1.36,0,0,0,.92-.38ZM145.92,14c-.34,0-.64.37-.71,1l1.11,0c.12,0,.17,0,.17-.16C146.5,14.38,146.28,14,145.92,14Z"/><path d="M132.09,44.29V44c.62-.07.66-.12.65-.89V40c-.6,1.41-1.38,3.2-1.85,4.33h-.25c-.43-1.11-1.12-2.84-1.7-4.26-.12,2.61-.12,3.16-.12,3.4,0,.43.18.53.76.59v.27h-2V44c.46-.05.66-.14.72-.6,0-.28.06-.68.26-3.41,0-.4,0-.59-.73-.65v-.27h1.61l1.62,3.71,1.67-3.71h1.58v.27c-.65.07-.73.14-.71.75l0,3c0,.77.05.8.71.89v.27Z"/><path d="M137.43,44.38a.71.71,0,0,1-.46-.16.74.74,0,0,1-.2-.32,2.63,2.63,0,0,1-.89.48,1,1,0,0,1-1-1,.78.78,0,0,1,.62-.79,5.94,5.94,0,0,0,1.28-.53v-.28c0-.47-.2-.74-.56-.74a.42.42,0,0,0-.34.17,1.4,1.4,0,0,0-.2.53.29.29,0,0,1-.31.24.45.45,0,0,1-.43-.39c0-.14.1-.24.28-.36a3.68,3.68,0,0,1,1.23-.57,1.32,1.32,0,0,1,.77.23,1.09,1.09,0,0,1,.43,1v1.44c0,.38.13.48.26.48a.68.68,0,0,0,.27-.07l.08.26Zm-.69-2c-.15.09-.38.2-.55.28s-.42.28-.42.56a.55.55,0,0,0,.52.61.67.67,0,0,0,.45-.18Z"/><path d="M140.08,44.29a.74.74,0,0,1-.32.09c-.58,0-.92-.29-.92-1V41.13h-.52l0-.1.23-.28h.34v-.67l.8-.6.11.05c0,.26,0,.7,0,1.22h.84a.3.3,0,0,1-.06.38h-.78v2c0,.64.26.72.43.72a1.12,1.12,0,0,0,.42-.09l.08.26Z"/><path d="M144,43.54a1.83,1.83,0,0,1-1.42.84,1.61,1.61,0,0,1-1.64-1.73,2.11,2.11,0,0,1,.57-1.43,1.76,1.76,0,0,1,1.23-.57A1.29,1.29,0,0,1,144,41.93c0,.15,0,.26-.12.29s-1.24.1-2.08.13c0,.93.55,1.36,1.12,1.36a1.36,1.36,0,0,0,.92-.38ZM142.53,41c-.34,0-.64.37-.71,1l1.11,0c.12,0,.17,0,.17-.16C143.1,41.38,142.89,41,142.53,41Z"/><path d="M146.48,44.29h-2V44c.46-.05.5-.09.5-.58V41.73c0-.45,0-.48-.44-.55V41a6.93,6.93,0,0,0,1.33-.31v.86c.33-.5.64-.85,1-.85a.46.46,0,0,1,.5.45.71.71,0,0,1-.36.6.2.2,0,0,1-.23,0c-.13-.11-.24-.22-.37-.22s-.37.15-.53.49v1.52c0,.49.05.52.63.58Z"/><path d="M147.73,44.29V44c.46-.05.51-.09.51-.65V41.79c0-.52,0-.55-.45-.61v-.24a6.74,6.74,0,0,0,1.34-.3v2.74c0,.55,0,.6.52.65v.26Zm.9-4.24a.52.52,0,1,1,.53-.51A.52.52,0,0,1,148.63,40.05Z"/><path d="M152.69,44.38a.68.68,0,0,1-.45-.16.77.77,0,0,1-.21-.32,2.7,2.7,0,0,1-.88.48,1,1,0,0,1-1.05-1c0-.41.2-.63.63-.79a5.94,5.94,0,0,0,1.28-.53v-.28c0-.47-.2-.74-.57-.74a.43.43,0,0,0-.34.17,1.84,1.84,0,0,0-.2.53.29.29,0,0,1-.31.24.45.45,0,0,1-.42-.39c0-.14.09-.24.27-.36a3.68,3.68,0,0,1,1.23-.57,1.3,1.3,0,0,1,.77.23,1.06,1.06,0,0,1,.43,1v1.44c0,.38.13.48.27.48a.68.68,0,0,0,.26-.07l.08.26Zm-.68-2-.55.28c-.27.13-.43.28-.43.56a.56.56,0,0,0,.52.61.69.69,0,0,0,.46-.18Z"/><path d="M153.68,44.29V44c.48-.06.51-.1.51-.61V39.71c0-.44,0-.49-.49-.57V38.9a7,7,0,0,0,1.38-.27v4.79c0,.52,0,.56.51.61v.26Z"/><path d="M130.58,61a2.6,2.6,0,0,1,2.66,2.65A2.71,2.71,0,1,1,130.58,61Zm-.13.33c-.84,0-1.52.78-1.52,2.23s.63,2.53,1.73,2.53c.81,0,1.48-.73,1.48-2.22S131.42,61.35,130.45,61.35Zm.58,4.5a10.87,10.87,0,0,0,2.45,1.54l-.07.23a4.54,4.54,0,0,1-1.2-.09A8.18,8.18,0,0,1,130,66.18Z"/><path d="M137.93,66.14a13.49,13.49,0,0,0-1.41.28v-.57a1.83,1.83,0,0,1-1.15.57c-.62,0-1-.39-1-1.16V63.64c0-.39-.05-.43-.26-.48l-.19,0v-.24c.39,0,1-.08,1.37-.13,0,.3,0,.71,0,1.19v1.14c0,.58.3.77.61.77a.91.91,0,0,0,.68-.29v-1.9c0-.39-.06-.45-.3-.49l-.25,0v-.24a13.21,13.21,0,0,0,1.45-.13v2.63c0,.41.05.48.32.51h.19Z"/><path d="M141,66.42a.7.7,0,0,1-.45-.16.74.74,0,0,1-.2-.32,2.63,2.63,0,0,1-.89.48,1,1,0,0,1-1-1c0-.41.2-.63.63-.79a5.94,5.94,0,0,0,1.28-.53v-.28c0-.47-.2-.73-.57-.73a.44.44,0,0,0-.34.16,1.84,1.84,0,0,0-.2.53.29.29,0,0,1-.3.24.45.45,0,0,1-.43-.39c0-.14.1-.24.27-.36a3.62,3.62,0,0,1,1.24-.56,1.34,1.34,0,0,1,.77.22,1.09,1.09,0,0,1,.43,1v1.43c0,.38.13.48.26.48a.63.63,0,0,0,.26-.07l.09.26Zm-.68-2-.55.27c-.27.13-.42.28-.42.56a.55.55,0,0,0,.51.61.67.67,0,0,0,.46-.18Z"/><path d="M144.34,66.33v-.26c.38,0,.42-.09.42-.64V64.08c0-.56-.26-.81-.62-.81a1.08,1.08,0,0,0-.7.31v1.91c0,.51,0,.53.41.58v.26H142v-.26c.46-.06.51-.08.51-.6V63.81c0-.49-.07-.52-.45-.59V63a6.79,6.79,0,0,0,1.35-.31c0,.14,0,.41,0,.6.16-.12.33-.24.52-.36a1.16,1.16,0,0,1,.64-.21c.64,0,1.05.47,1.05,1.27v1.51c0,.52,0,.54.46.59v.26Z"/><path d="M148.13,66.33a.74.74,0,0,1-.32.09c-.58,0-.92-.29-.92-1V63.17h-.52l-.05-.1.23-.28h.34v-.66c.23-.19.57-.42.8-.61l.11,0c0,.26,0,.7,0,1.22h.84a.32.32,0,0,1-.06.38h-.78v2c0,.63.26.72.43.72a1.13,1.13,0,0,0,.42-.1l.08.26Z"/><path d="M149,66.33v-.26c.46,0,.51-.09.51-.65V63.83c0-.52,0-.55-.45-.61V63a6.91,6.91,0,0,0,1.34-.3v2.74c0,.55,0,.6.52.65v.26Zm.9-4.24a.52.52,0,1,1,0-1,.52.52,0,0,1,0,1Z"/><path d="M152.94,66.33a.74.74,0,0,1-.33.09c-.58,0-.91-.29-.91-1V63.17h-.53l0-.1.23-.28h.34v-.66c.23-.19.56-.42.8-.61l.11,0c0,.26,0,.7,0,1.22h.84a.32.32,0,0,1-.06.38h-.78v2c0,.63.26.72.43.72a1.18,1.18,0,0,0,.42-.1l.08.26Z"/><path d="M157.61,63c-.4.06-.48.14-.68.58s-.42,1-.92,2.21a23.22,23.22,0,0,0-.82,2.25.27.27,0,0,1-.28.22c-.29,0-.58-.21-.58-.46s0-.19.21-.29a1.75,1.75,0,0,0,.62-.58,4,4,0,0,0,.24-.55.38.38,0,0,0,0-.31c-.38-1.07-.87-2.12-1-2.54s-.25-.47-.65-.53v-.25h1.87V63c-.36.06-.41.12-.31.39l.67,1.78c.2-.48.49-1.26.65-1.73.08-.27,0-.37-.43-.44v-.25h1.47Z"/><path d="M130,89.13a2.53,2.53,0,0,1,1.41.33,1.35,1.35,0,0,1,.59,1.18,1.69,1.69,0,0,1-1.81,1.65l-.23,0-.49-.12v1.14c0,.67.05.7.76.77v.27h-2.42v-.27c.63-.08.69-.11.69-.78V90.19c0-.69-.08-.74-.69-.79v-.27Zm-.53,2.7a1.08,1.08,0,0,0,.47.09c.43,0,1.05-.24,1.05-1.28,0-.89-.51-1.2-1.09-1.2a.62.62,0,0,0-.36.08c-.06,0-.07.14-.07.29Z"/><path d="M135,94.42a.68.68,0,0,1-.45-.16.89.89,0,0,1-.21-.32,2.6,2.6,0,0,1-.88.48,1,1,0,0,1-1.05-1c0-.41.2-.63.63-.79a5.94,5.94,0,0,0,1.28-.53v-.28c0-.47-.2-.73-.57-.73a.44.44,0,0,0-.34.16,1.84,1.84,0,0,0-.2.53.29.29,0,0,1-.3.24.45.45,0,0,1-.43-.39c0-.14.09-.24.27-.36A3.48,3.48,0,0,1,134,90.7a1.35,1.35,0,0,1,.78.22,1.09,1.09,0,0,1,.42,1v1.43c0,.38.13.48.27.48a.68.68,0,0,0,.26-.07l.09.26Zm-.68-2-.55.27c-.27.13-.43.28-.43.56a.56.56,0,0,0,.52.61.67.67,0,0,0,.46-.18Z"/><path d="M137.67,94.33a.81.81,0,0,1-.33.09c-.58,0-.91-.29-.91-1V91.17h-.53l0-.1.22-.28h.35v-.66c.23-.19.56-.42.8-.61l.11,0c0,.26,0,.7,0,1.22h.84a.32.32,0,0,1-.06.38h-.78v2c0,.63.25.72.43.72a1.23,1.23,0,0,0,.42-.1l.07.26Z"/><path d="M140.17,94.33a.74.74,0,0,1-.32.09c-.58,0-.92-.29-.92-1V91.17h-.52l0-.1.23-.28h.34v-.66c.23-.19.57-.42.8-.61l.11,0c0,.26,0,.7,0,1.22h.84a.32.32,0,0,1-.06.38h-.78v2c0,.63.26.72.43.72a1.13,1.13,0,0,0,.42-.1l.08.26Z"/><path d="M144,93.58a1.8,1.8,0,0,1-1.41.84A1.61,1.61,0,0,1,141,92.69a2.11,2.11,0,0,1,.57-1.43,1.75,1.75,0,0,1,1.23-.56A1.28,1.28,0,0,1,144.07,92c0,.14,0,.25-.12.28s-1.25.1-2.08.13c0,.93.54,1.36,1.12,1.36a1.37,1.37,0,0,0,.91-.37ZM142.62,91c-.34,0-.64.37-.71,1l1.1,0c.13,0,.18,0,.18-.16C143.19,91.42,143,91,142.62,91Z"/><path d="M146.57,94.33h-2v-.26c.45,0,.5-.09.5-.58V91.77c0-.44,0-.48-.44-.55V91a7.11,7.11,0,0,0,1.33-.31v.87c.33-.51.63-.85,1-.85a.46.46,0,0,1,.5.44.71.71,0,0,1-.36.6.21.21,0,0,1-.24,0c-.13-.12-.23-.23-.37-.23s-.37.15-.52.49v1.52c0,.49.05.52.63.58Z"/><path d="M150.05,94.33v-.26c.38,0,.41-.09.41-.64V92.08c0-.56-.25-.81-.62-.81a1.11,1.11,0,0,0-.7.31v1.91c0,.51,0,.53.42.58v.26h-1.81v-.26c.45-.06.5-.08.5-.6V91.81c0-.49-.06-.52-.44-.59V91a6.69,6.69,0,0,0,1.34-.31c0,.14,0,.41,0,.6.16-.12.33-.24.52-.36a1.18,1.18,0,0,1,.64-.21c.65,0,1,.47,1,1.27v1.51c0,.52.05.54.46.59v.26Z"/></g></g></svg>