<svg xmlns="http://www.w3.org/2000/svg" viewBox="0 0 149 45.16"><defs><style>.cls-1{fill:#f2f7d9;}.cls-2{fill:none;stroke:#c42c2c;stroke-miterlimit:10;stroke-width:0.84px;}.cls-3{fill:#c42c2c;}</style></defs><title>资源 3</title><g id="图层_2" data-name="图层 2"><g id="图层_1-2" data-name="图层 1"><rect class="cls-1" width="149" height="45.16" rx="5.33"/><rect class="cls-2" x="7.5" y="6.84" width="134" height="31" rx="3.13"/><path class="cls-3" d="M35,17.92c-.34-1.16-.84-2.43-2.51-2.43a1.71,1.71,0,0,0-1.79,1.83c0,1.07.71,1.68,2.26,2.47,2,1,3.14,1.91,3.14,3.66,0,2.05-1.72,3.56-4.21,3.56a9.41,9.41,0,0,1-2.93-.57c-.12-.45-.4-2.09-.52-3l.65-.15c.36,1.16,1.29,3,3.1,3A1.77,1.77,0,0,0,34,24.36c0-1.16-.68-1.75-2.21-2.58-1.88-1-3-1.91-3-3.71s1.43-3.29,4-3.29a12.73,12.73,0,0,1,2.51.33c.07.66.18,1.52.32,2.67Z"/><path class="cls-3" d="M37.19,19.18a21.84,21.84,0,0,0,3.07-.8v1.34s1.31-.77,1.37-.79a2.31,2.31,0,0,1,1.12-.37,3.29,3.29,0,0,1,3.14,3.51c0,2.66-2.11,4.4-4.44,4.88a2.87,2.87,0,0,1-1.19-.22V29c0,1.12.11,1.23,1.4,1.38v.56H37v-.56c1.13-.12,1.22-.25,1.22-1.32V21c0-1-.08-1.1-1.06-1.23Zm3.07,6.22a2.52,2.52,0,0,0,1.56.68c1.17,0,2-1.22,2-3.19,0-2.12-1.11-3.05-2.15-3.05a2.5,2.5,0,0,0-1.39.53Z"/><path class="cls-3" d="M53.06,27a1.54,1.54,0,0,1-1-.36,1.76,1.76,0,0,1-.45-.72,6.24,6.24,0,0,1-2,1.08,2.31,2.31,0,0,1-2.36-2.28c0-.93.45-1.41,1.42-1.78a14.84,14.84,0,0,0,2.88-1.18v-.64c0-1.06-.45-1.66-1.28-1.66a1,1,0,0,0-.77.38A3.61,3.61,0,0,0,49,21a.63.63,0,0,1-.68.54,1,1,0,0,1-1-.89c0-.3.22-.52.62-.8a8.37,8.37,0,0,1,2.78-1.27,2.9,2.9,0,0,1,1.73.51,2.44,2.44,0,0,1,1,2.17v3.24c0,.85.29,1.08.59,1.08a1.49,1.49,0,0,0,.59-.16l.19.57Zm-1.54-4.54c-.35.19-.86.44-1.24.63-.61.29-1,.62-1,1.25a1.26,1.26,0,0,0,1.17,1.38,1.51,1.51,0,0,0,1-.42Z"/><path class="cls-3" d="M62.47,25A4.19,4.19,0,0,1,59.36,27a3.74,3.74,0,0,1-3.84-3.84,4.3,4.3,0,0,1,1.83-3.47,5.09,5.09,0,0,1,3-1.08A2.82,2.82,0,0,1,62,19a.69.69,0,0,1,.32.61,1.05,1.05,0,0,1-.75.94.54.54,0,0,1-.38-.19,3,3,0,0,0-1.85-.87c-.87,0-1.79.8-1.79,2.72a2.89,2.89,0,0,0,2.6,3.22,2.75,2.75,0,0,0,2-.84Z"/><path class="cls-3" d="M70.19,25.05A4.08,4.08,0,0,1,67,27a3.65,3.65,0,0,1-3.69-3.9,4.68,4.68,0,0,1,1.29-3.21,3.87,3.87,0,0,1,2.76-1.28,2.9,2.9,0,0,1,2.9,2.88c0,.33,0,.58-.28.64s-2.8.23-4.69.3c0,2.08,1.24,3.06,2.53,3.06a3.06,3.06,0,0,0,2.06-.85ZM67,19.28c-.76,0-1.44.82-1.6,2.25.83,0,1.63,0,2.5-.05.27,0,.38-.07.38-.36C68.28,20.2,67.79,19.28,67,19.28Z"/><path class="cls-3" d="M75.09,26.74v-.58c1.07-.14,1.14-.23,1.14-1.38V16.43c0-1-.1-1.1-1.11-1.28v-.54A16.56,16.56,0,0,0,78.24,14V24.78c0,1.18.07,1.26,1.15,1.38v.58Z"/><path class="cls-3" d="M86.25,27a1.56,1.56,0,0,1-1-.36,1.76,1.76,0,0,1-.45-.72,6.24,6.24,0,0,1-2,1.08,2.31,2.31,0,0,1-2.36-2.28c0-.93.45-1.41,1.42-1.78a14.57,14.57,0,0,0,2.88-1.18v-.64c0-1.06-.45-1.66-1.28-1.66a.94.94,0,0,0-.76.38A3.82,3.82,0,0,0,82.21,21a.63.63,0,0,1-.68.54,1,1,0,0,1-1-.89c0-.3.22-.52.62-.8A8.37,8.37,0,0,1,84,18.56a2.87,2.87,0,0,1,1.73.51,2.44,2.44,0,0,1,1,2.17v3.24c0,.85.29,1.08.59,1.08a1.45,1.45,0,0,0,.59-.16L88,26Zm-1.54-4.54c-.35.19-.86.44-1.24.63-.6.29-1,.62-1,1.25a1.26,1.26,0,0,0,1.17,1.38,1.49,1.49,0,0,0,1-.42Z"/><path class="cls-3" d="M96.54,19.34c-.89.13-1.08.3-1.53,1.29s-1,2.27-2.06,5c-1.21,2.91-1.54,4.07-1.87,5.07-.12.39-.33.5-.61.5a1.25,1.25,0,0,1-1.3-1.05c0-.27.11-.42.45-.65A3.72,3.72,0,0,0,91,28.18,10.74,10.74,0,0,0,91.58,27a1,1,0,0,0-.06-.7c-.86-2.4-2-4.78-2.35-5.73s-.54-1.05-1.45-1.18v-.57h4.2v.57c-.8.13-.91.27-.7.87l1.53,4c.43-1.08,1.1-2.86,1.45-3.91.19-.61,0-.83-1-1v-.57h3.3Z"/><path class="cls-3" d="M101.07,18.56a4,4,0,0,1,4.06,4.06,4.14,4.14,0,1,1-8.28.22A4.2,4.2,0,0,1,101.07,18.56Zm-.22.68c-.89,0-1.73.9-1.73,3.07s.84,3.94,2.09,3.94c.83,0,1.64-.59,1.64-3.16C102.85,20.73,102.13,19.24,100.85,19.24Z"/><path class="cls-3" d="M115.31,26.31a31.59,31.59,0,0,0-3.19.64V25.67A4.16,4.16,0,0,1,109.54,27c-1.4,0-2.32-.89-2.32-2.62V20.69c0-.88-.12-1-.59-1.09l-.43-.1V19c.87,0,2.21-.18,3.08-.31,0,.69,0,1.6,0,2.69V23.9c0,1.32.67,1.73,1.37,1.73a2,2,0,0,0,1.52-.64V20.7c0-.88-.13-1-.68-1.11l-.55-.09V19a31.31,31.31,0,0,0,3.25-.31v5.92c0,.93.12,1.1.74,1.15l.43,0Z"/><path class="cls-3" d="M119.82,26.74a2,2,0,0,1-.74.21c-1.3,0-2.06-.66-2.06-2.23v-5.1h-1.18l-.1-.22.51-.63H117v-1.5c.52-.4,1.28-.94,1.81-1.35l.24.11c0,.58,0,1.56,0,2.74h1.89a.71.71,0,0,1-.13.85H119V24.1c0,1.42.58,1.62,1,1.62a2.32,2.32,0,0,0,1-.22l.17.59Z"/></g></g></svg>