<svg xmlns="http://www.w3.org/2000/svg" viewBox="0 0 225 45.16"><defs><style>.cls-1{fill:#f2f7d9;}.cls-2{fill:none;stroke:#c42c2c;stroke-miterlimit:10;stroke-width:1.06px;}.cls-3{fill:#c42c2c;}</style></defs><title>资源 2</title><g id="图层_2" data-name="图层 2"><g id="图层_1-2" data-name="图层 1"><rect class="cls-1" width="225" height="45.16" rx="6.55"/><rect class="cls-2" x="5.25" y="6.84" width="213.87" height="31" rx="3.96"/><path class="cls-3" d="M19.5,25c-.13.7-.65,2.6-.82,3.11H10V27.5c1.6-.13,1.74-.24,1.74-1.76v-7c0-1.52-.17-1.64-1.56-1.76v-.61h5.34V17c-1.41.13-1.6.24-1.6,1.76v7.11c0,1,.07,1.41,1.08,1.42,0,0,1,0,1.1,0a1.8,1.8,0,0,0,1.69-.65,7.05,7.05,0,0,0,1.12-1.87Z"/><path class="cls-3" d="M20.44,28.11v-.57c1-.12,1.14-.2,1.14-1.46V22.5c0-1.18-.07-1.25-1-1.38v-.54a16.81,16.81,0,0,0,3-.67v6.17c0,1.22.09,1.34,1.18,1.46v.57Zm2-9.53a1.2,1.2,0,0,1-1.18-1.17,1.18,1.18,0,0,1,1.19-1.18,1.16,1.16,0,0,1,1.17,1.18A1.18,1.18,0,0,1,22.47,18.58Z"/><path class="cls-3" d="M34.57,27.69a29,29,0,0,0-3.19.64V27.05a4.16,4.16,0,0,1-2.58,1.28c-1.41,0-2.32-.89-2.32-2.62V22.06c0-.88-.12-1-.6-1.08l-.42-.11v-.54c.87,0,2.21-.18,3.08-.31,0,.7-.05,1.61-.05,2.69v2.57c0,1.31.67,1.73,1.37,1.73a2,2,0,0,0,1.52-.65V22.07c0-.87-.14-1-.68-1.1l-.55-.1v-.54A31.31,31.31,0,0,0,33.4,20V26c0,.92.12,1.1.73,1.14l.44,0Z"/><path class="cls-3" d="M43.6,20.72c-.89.13-1.07.3-1.52,1.29s-.95,2.27-2.06,5a51.41,51.41,0,0,0-1.87,5.06c-.12.39-.33.5-.61.5a1.25,1.25,0,0,1-1.31-1.05c0-.27.12-.42.46-.65a3.8,3.8,0,0,0,1.4-1.31,10.33,10.33,0,0,0,.55-1.22,1,1,0,0,0-.06-.71c-.85-2.4-1.94-4.78-2.34-5.72s-.55-1.06-1.46-1.18v-.57H39v.57c-.79.12-.9.27-.69.86l1.52,4c.44-1.08,1.11-2.85,1.45-3.9.2-.62,0-.84-.95-1v-.57H43.6Z"/><path class="cls-3" d="M49.84,28.33a1.52,1.52,0,0,1-1-.37,1.64,1.64,0,0,1-.46-.72,6.11,6.11,0,0,1-2,1.09A2.32,2.32,0,0,1,44,26c0-.93.45-1.41,1.42-1.77a14.49,14.49,0,0,0,2.88-1.19v-.64c0-1.05-.45-1.65-1.28-1.65a.92.92,0,0,0-.76.38,3.75,3.75,0,0,0-.46,1.18.62.62,0,0,1-.68.54,1,1,0,0,1-1-.88c0-.3.22-.53.62-.81a8.58,8.58,0,0,1,2.78-1.27,2.87,2.87,0,0,1,1.73.51,2.45,2.45,0,0,1,1,2.17v3.24c0,.85.29,1.08.59,1.08a1.27,1.27,0,0,0,.59-.16l.2.57ZM48.3,23.78c-.35.19-.86.44-1.24.63-.6.3-1,.63-1,1.26A1.25,1.25,0,0,0,47.27,27a1.48,1.48,0,0,0,1-.41Z"/><path class="cls-3" d="M57.46,28.11v-.57c.86-.11.93-.2.93-1.44v-3c0-1.27-.57-1.82-1.39-1.82a2.54,2.54,0,0,0-1.58.67v4.31c0,1.15.09,1.21.94,1.32v.57H52.28v-.57c1-.15,1.13-.19,1.13-1.37V22.44c0-1.11-.13-1.16-1-1.33v-.54a15.23,15.23,0,0,0,3-.69c0,.31,0,.92,0,1.34.36-.25.75-.52,1.18-.79a2.53,2.53,0,0,1,1.43-.5c1.46,0,2.37,1.06,2.37,2.87v3.41c0,1.15.11,1.21,1,1.33v.57Z"/><path class="cls-3" d="M65,25.37a1.11,1.11,0,0,0-.42.71c0,.3.33.67,1.06.67h2c1.11,0,2.67.43,2.67,2.2,0,2-2.39,3.65-4.78,3.65s-3.32-1.17-3.34-2.18a1.2,1.2,0,0,1,.51-1c.45-.36,1-.77,1.4-1a2.47,2.47,0,0,1-1.35-1,1.57,1.57,0,0,1-.27-.91,5,5,0,0,0,1.85-1.29Zm.86.18c-1.92,0-3.27-1.08-3.27-2.72,0-2,1.86-2.92,3.41-2.92a4,4,0,0,1,1.92.47,13.25,13.25,0,0,0,2.46-.26l.1.15a2.29,2.29,0,0,1-.67,1.06c-.29,0-.83-.08-1.08-.09a2.35,2.35,0,0,1,.47,1.53C69.15,24.63,67.5,25.55,65.81,25.55Zm.29,2.87a2.39,2.39,0,0,0-1.63.36,1.57,1.57,0,0,0-.63,1.16c0,1,1,1.7,2.44,1.7s2.4-.73,2.4-1.76a1.27,1.27,0,0,0-.92-1.27A5.3,5.3,0,0,0,66.1,28.42Zm-.27-7.86c-.65,0-1.27.69-1.27,2s.52,2.3,1.42,2.3c.74,0,1.24-.73,1.24-2.08S66.74,20.56,65.83,20.56Z"/><path class="cls-3" d="M86.21,25.09a24.84,24.84,0,0,1-1,2.84,16.5,16.5,0,0,1-3.31.45c-4.66,0-6.72-3-6.72-6,0-3.71,2.82-6.23,7-6.23a18.78,18.78,0,0,1,3.41.42c.08.83.21,2.08.34,2.91l-.66.13a3.13,3.13,0,0,0-1.82-2.41,4.78,4.78,0,0,0-1.68-.28c-2.74,0-4.14,2.18-4.14,5.06,0,3.36,1.73,5.59,4.35,5.59,1.63,0,2.6-.81,3.55-2.73Z"/><path class="cls-3" d="M91.84,19.93A4,4,0,0,1,95.9,24a4.14,4.14,0,1,1-8.28.23A4.2,4.2,0,0,1,91.84,19.93Zm-.22.68c-.89,0-1.73.9-1.73,3.07s.84,3.95,2.09,3.95c.84,0,1.64-.59,1.64-3.16C93.62,22.1,92.9,20.61,91.62,20.61Z"/><path class="cls-3" d="M102.19,28.11v-.57c.86-.11.93-.2.93-1.44v-3c0-1.27-.57-1.82-1.39-1.82a2.52,2.52,0,0,0-1.58.67v4.31c0,1.15.08,1.21.94,1.32v.57H97v-.57c1-.15,1.13-.19,1.13-1.37V22.44c0-1.11-.14-1.16-1-1.33v-.54a15.23,15.23,0,0,0,3-.69c0,.31,0,.92,0,1.34.36-.25.74-.52,1.18-.79a2.51,2.51,0,0,1,1.43-.5c1.46,0,2.37,1.06,2.37,2.87v3.41c0,1.15.11,1.21,1,1.33v.57Z"/><path class="cls-3" d="M108.22,20.15v-.42a4.49,4.49,0,0,1,1.66-3.41,3.91,3.91,0,0,1,2.15-.94,2.15,2.15,0,0,1,1.53.53.67.67,0,0,1,.14.74,1.44,1.44,0,0,1-.57.72.47.47,0,0,1-.62,0c-.41-.4-.93-.92-1.47-.92-.78,0-.83.95-.82,2.94v.8H112a.88.88,0,0,1-.23.84h-1.52v5.16c0,1.18.16,1.24,1.38,1.39v.57h-4.52v-.57c1.06-.13,1.14-.22,1.14-1.35V21H107l-.09-.22.45-.62Z"/><path class="cls-3" d="M121.47,27.69a29.51,29.51,0,0,0-3.19.64V27.05a4.16,4.16,0,0,1-2.58,1.28c-1.4,0-2.32-.89-2.32-2.62V22.06c0-.88-.12-1-.59-1.08l-.43-.11v-.54c.87,0,2.21-.18,3.08-.31,0,.7,0,1.61,0,2.69v2.57c0,1.31.67,1.73,1.37,1.73a2,2,0,0,0,1.52-.65V22.07c0-.87-.13-1-.68-1.1l-.55-.1v-.54A31.31,31.31,0,0,0,120.3,20V26c0,.92.12,1.1.74,1.14l.43,0Z"/><path class="cls-3" d="M129.38,26.41a4.19,4.19,0,0,1-3.12,1.92,3.74,3.74,0,0,1-3.83-3.84A4.28,4.28,0,0,1,124.26,21a5.09,5.09,0,0,1,3-1.09,2.82,2.82,0,0,1,1.62.45.69.69,0,0,1,.32.62,1.06,1.06,0,0,1-.75.94.56.56,0,0,1-.38-.19,3,3,0,0,0-1.85-.88c-.88,0-1.79.8-1.79,2.72a2.9,2.9,0,0,0,2.6,3.23,2.75,2.75,0,0,0,2-.84Z"/><path class="cls-3" d="M130.2,28.11v-.57c1-.12,1.15-.2,1.15-1.46V22.5c0-1.18-.08-1.25-1-1.38v-.54a16.81,16.81,0,0,0,3-.67v6.17c0,1.22.09,1.34,1.18,1.46v.57Zm2-9.53a1.21,1.21,0,0,1-1.18-1.17,1.19,1.19,0,0,1,1.2-1.18,1.15,1.15,0,0,1,1.16,1.18A1.18,1.18,0,0,1,132.23,18.58Z"/><path class="cls-3" d="M144.33,27.69a29,29,0,0,0-3.19.64V27.05a4.16,4.16,0,0,1-2.58,1.28c-1.4,0-2.32-.89-2.32-2.62V22.06c0-.88-.12-1-.59-1.08l-.43-.11v-.54c.87,0,2.21-.18,3.08-.31,0,.7-.05,1.61-.05,2.69v2.57c0,1.31.67,1.73,1.37,1.73a2,2,0,0,0,1.52-.65V22.07c0-.87-.13-1-.68-1.1l-.55-.1v-.54a31.31,31.31,0,0,0,3.25-.31V26c0,.92.12,1.1.73,1.14l.44,0Z"/><path class="cls-3" d="M150.09,22.42c-.42-1.18-1-1.81-1.92-1.81a1,1,0,0,0-1,1c0,.68.48,1,1.44,1.46,1.49.68,2.4,1.27,2.4,2.61,0,1.75-1.64,2.62-3.15,2.62a5.54,5.54,0,0,1-2.24-.53c-.08-.45-.24-1.61-.3-2.22l.57-.11c.36,1.15,1.06,2.16,2.26,2.16a1,1,0,0,0,1.11-1c0-.65-.35-1.06-1.41-1.58-1.21-.59-2.32-1.2-2.32-2.62s1.15-2.47,3-2.47a8.27,8.27,0,0,1,1.86.26c.06.47.21,1.61.29,2.08Z"/><path class="cls-3" d="M166.08,19.42a6,6,0,0,0-.71-1.67c-.31-.41-.46-.55-1.5-.55h-1.38v8.57c0,1.47.17,1.61,1.81,1.73v.61h-5.72V27.5c1.58-.12,1.73-.25,1.73-1.73V17.2H159c-1,0-1.29.14-1.62.61a7,7,0,0,0-.69,1.62h-.63c.12-1.24.24-2.55.28-3.46h.49c.27.42.48.44,1,.44h7.18a1.1,1.1,0,0,0,1-.44h.49c0,.79.08,2.27.17,3.4Z"/><path class="cls-3" d="M173.14,26.43a4.11,4.11,0,0,1-3.19,1.9,3.64,3.64,0,0,1-3.69-3.91,4.69,4.69,0,0,1,1.28-3.21,4,4,0,0,1,2.77-1.28,2.9,2.9,0,0,1,2.89,2.89c0,.32,0,.58-.27.64s-2.81.22-4.69.29c0,2.09,1.23,3.07,2.52,3.07a3.13,3.13,0,0,0,2.07-.85Zm-3.22-5.78c-.75,0-1.44.82-1.59,2.26l2.49-.06c.28,0,.38-.06.38-.36C171.22,21.57,170.73,20.65,169.92,20.65Z"/><path class="cls-3" d="M184.19,28.11v-.57c.84-.11,1-.18,1-1.34V23.12c0-1.41-.61-1.87-1.36-1.87a2.53,2.53,0,0,0-1.57.69,7.42,7.42,0,0,1,.05.76v3.59c0,1.05.09,1.14,1,1.25v.57h-4v-.57c.91-.11,1-.17,1-1.27V23.06c0-1.3-.47-1.82-1.29-1.82a2.7,2.7,0,0,0-1.59.67v4.36c0,1.07.11,1.16.9,1.27v.57h-4v-.57c1.06-.12,1.13-.2,1.13-1.31V22.44c0-1.06,0-1.19-.94-1.33v-.54a15.36,15.36,0,0,0,2.94-.69v1.39c.39-.28.73-.54,1.18-.81a2.73,2.73,0,0,1,1.49-.53,2.08,2.08,0,0,1,2,1.41c.45-.35.85-.62,1.3-.93a2.78,2.78,0,0,1,1.44-.48c1.51,0,2.35,1.05,2.35,2.86v3.48c0,1.07.09,1.14,1,1.27v.57Z"/><path class="cls-3" d="M189,20.55a22.08,22.08,0,0,0,3.06-.8V21.1l1.37-.8a2.42,2.42,0,0,1,1.13-.37,3.29,3.29,0,0,1,3.14,3.51c0,2.67-2.12,4.41-4.45,4.89a3.32,3.32,0,0,1-1.19-.22v2.25c0,1.13.11,1.23,1.41,1.38v.57h-4.63v-.57c1.12-.11,1.22-.25,1.22-1.31V22.34c0-1-.09-1.11-1.06-1.23Zm3.06,6.23a2.52,2.52,0,0,0,1.56.68c1.17,0,2-1.22,2-3.19,0-2.12-1.11-3.06-2.14-3.06a2.5,2.5,0,0,0-1.4.53Z"/><path class="cls-3" d="M198.75,28.11v-.57c1.07-.15,1.14-.24,1.14-1.39V17.81c0-1-.1-1.1-1.11-1.28V16a16.56,16.56,0,0,0,3.12-.61V26.15c0,1.19.07,1.27,1.15,1.39v.57Z"/><path class="cls-3" d="M210.92,26.43a4.11,4.11,0,0,1-3.19,1.9A3.64,3.64,0,0,1,204,24.42a4.7,4.7,0,0,1,1.29-3.21,3.91,3.91,0,0,1,2.76-1.28,2.9,2.9,0,0,1,2.9,2.89c0,.32,0,.58-.28.64s-2.81.22-4.69.29c0,2.09,1.23,3.07,2.52,3.07a3.13,3.13,0,0,0,2.07-.85Zm-3.22-5.78c-.75,0-1.43.82-1.59,2.26l2.49-.06c.28,0,.39-.06.39-.36C209,21.57,208.51,20.65,207.7,20.65Z"/></g></g></svg>